/* XPM */
static char * bottom_active_xpm[] = {
"20 30 2 1",
" 	c None",
".	c #ccddff s active_color_2",
"                    ",
"                    ",
"                    ",
"                    ",
"                    ",
"....................",
"....................",
"....................",
"....................",
"....................",
"....................",
"....................",
"....................",
"....................",
"....................",
"....................",
"....................",
"....................",
"....................",
"....................",
"....................",
"....................",
"....................",
"....................",
"....................",
"                    ",
"                    ",
"                    ",
"                    ",
"                    "};