/* XPM */
static char * bottom_active_xpm[] = {
"26 30 3 1",
" 	c None",
".	c #333333",
",	c #333333",
"                          ",
"                          ",
"                          ",
"                          ",
"    ..................    ",
"   .,,,,,,,,,,,,,,,,,,.   ",
"  .,,,,,,,,,,,,,,,,,,,,.  ",
"  .,,,,,,,,,,,,,,,,,,,,.  ",
"  .,,,,,,,,,,,,,,,,,,,,.  ",
"  .,,,,,,,,,,,,,,,,,,,,.  ",
"  .,,,,,,,,,,,,,,,,,,,,.  ",
"  .,,,,,,,,,,,,,,,,,,,,.  ",
"  .,,,,,,,,,,,,,,,,,,,,.  ",
"  .,,,,,,,,,,,,,,,,,,,,.  ",
"  .,,,,,,,,,,,,,,,,,,,,.  ",
"  .,,,,,,,,,,,,,,,,,,,,.  ",
"  .,,,,,,,,,,,,,,,,,,,,.  ",
"  .,,,,,,,,,,,,,,,,,,,,.  ",
"  .,,,,,,,,,,,,,,,,,,,,.  ",
"  .,,,,,,,,,,,,,,,,,,,,.  ",
"  .,,,,,,,,,,,,,,,,,,,,.  ",
"  .,,,,,,,,,,,,,,,,,,,,.  ",
"  .,,,,,,,,,,,,,,,,,,,,.  ",
"  .,,,,,,,,,,,,,,,,,,,,.  ",
"   .,,,,,,,,,,,,,,,,,,.   ",
"    ..................    ",
"                          ",
"                          ",
"                          ",
"                          "};