<?xml version="1.0" encoding="UTF-8" standalone="no"?>
<svg
   xmlns:dc="http://purl.org/dc/elements/1.1/"
   xmlns:cc="http://creativecommons.org/ns#"
   xmlns:rdf="http://www.w3.org/1999/02/22-rdf-syntax-ns#"
   xmlns:svg="http://www.w3.org/2000/svg"
   xmlns="http://www.w3.org/2000/svg"
   xmlns:sodipodi="http://sodipodi.sourceforge.net/DTD/sodipodi-0.dtd"
   xmlns:inkscape="http://www.inkscape.org/namespaces/inkscape"
   version="1.1"
   id="svg2374"
   width="16"
   height="16"
   viewBox="0 0 16 16"
   sodipodi:docname="audio-volume-muted.svg"
   inkscape:version="1.0.2 (e86c870879, 2021-01-15)">
  <metadata
     id="metadata2380">
    <rdf:RDF>
      <cc:Work
         rdf:about="">
        <dc:format>image/svg+xml</dc:format>
        <dc:type
           rdf:resource="http://purl.org/dc/dcmitype/StillImage" />
        <dc:title></dc:title>
      </cc:Work>
    </rdf:RDF>
  </metadata>
  <defs
     id="defs2378" />
  <sodipodi:namedview
     pagecolor="#ffffff"
     bordercolor="#666666"
     borderopacity="1"
     objecttolerance="10"
     gridtolerance="10"
     guidetolerance="10"
     inkscape:pageopacity="0"
     inkscape:pageshadow="2"
     inkscape:window-width="1904"
     inkscape:window-height="998"
     id="namedview2376"
     showgrid="false"
     inkscape:zoom="59"
     inkscape:cx="-0.93821114"
     inkscape:cy="8.2443209"
     inkscape:window-x="8"
     inkscape:window-y="8"
     inkscape:window-maximized="0"
     inkscape:current-layer="svg2374"
     inkscape:document-rotation="0" />
  <g
     transform="matrix(1.0877528,0,0,1.1406552,-118.64158,-745.25648)"
     id="g11">
    <path
       opacity="0.35"
       style="fill:currentColor"
       class="ColorScheme-Text"
       d="m 109.09,657.45 v 5.818 h 2.909 l 4,4.091 v -14 l -4,4.091 z"
       id="path5" />
    <path
       opacity="0.35"
       style="fill:currentColor"
       class="ColorScheme-Text"
       d="m 118,653.36 v 1.5 c 2.32,0.74 4,2.93 4,5.5 0,2.57 -1.68,4.76 -4,5.5 v 1.5 c 3.15,-0.78 5.5,-3.6 5.5,-7 0,-3.4 -2.35,-6.22 -5.5,-7 z"
       id="path7" />
    <path
       opacity="0.35"
       style="fill:currentColor"
       class="ColorScheme-Text"
       d="m 119.79,660.36 c 0,-1.3 -0.72,-2.42 -1.79,-3 v 6 c 1.06,-0.58 1.79,-1.7 1.79,-3 z"
       id="path9" />
  </g>
</svg>
