/* XPM */
static char * close_active_xpm[] = {
"49 30 3 1",
" 	c None",
".	c #CCDDFF",
"+	c #CA1D1D",
".................................................",
"++++++++++++++++++++++++++++++++++++++++++++++++.",
"++++++++++++++++++++++++++++++++++++++++++++++++.",
"++++++++++++++++++++++++++++++++++++++++++++++++.",
"++++++++++++++++++++++++++++++++++++++++++++++++.",
"++++++++++++++++++++++++++++++++++++++++++++++++.",
"++++++++++++++++++++++++++++++++++++++++++++++++.",
"++++++++++++++++++++++++++++++++++++++++++++++++.",
"++++++++++++++++++++++++++++++++++++++++++++++++.",
"++++++++++++++++++++++++++++++++++++++++++++++++.",
"++++++++++++++++++++++++++++++++++++++++++++++++.",
"++++++++++++++++++++++++++++++++++++++++++++++++.",
"++++++++++++++++++++++++++++++++++++++++++++++++.",
"++++++++++++++++++++++++++++++++++++++++++++++++.",
"++++++++++++++++++++++++++++++++++++++++++++++++.",
"++++++++++++++++++++++++++++++++++++++++++++++++.",
"++++++++++++++++++++++++++++++++++++++++++++++++.",
"++++++++++++++++++++++++++++++++++++++++++++++++.",
"+++++++++++++++++++++++++++++++++++++++++++++++. ",
"++++++++++++++++++++++++++++++++++++++++++++++.  ",
"..............................................   ",
"                                                 ",
"                                                 ",
"                                                 ",
"                                                 ",
"                                                 ",
"                                                 ",
"                                                 ",
"                                                 ",
"                                                 "};
